<svg xmlns="http://www.w3.org/2000/svg" viewBox="0 0 540 223"><polygon points="279.46 174.37 278.29 180.37 311.01 180.37 307.96 174.37 279.46 174.37" fill="#9ca3af"/><path d="M146.57,174.37v1.91h-5.31v-2.65a48.24,48.24,0,1,0-96.47,0v2.65h-5.3v-1.91H13.31a1.71,1.71,0,0,1-1.69-1.68v-8.28a1.71,1.71,0,0,1,1.69-1.69h6.88l-1.88-35.14A13.55,13.55,0,0,1,22.58,117l3.62-3.41a19.53,19.53,0,0,0,6.12-15.81L30.81,78.49a13.66,13.66,0,0,1,4.75-11.43L82.85,26.91a13.71,13.71,0,0,1,7.93-3.21l135.11-8.62a201.21,201.21,0,0,1,29.78.31l.16-.21a25.61,25.61,0,0,1,5.67-5.25,206.68,206.68,0,0,0-36-.84L90.4,17.71A19.79,19.79,0,0,0,79,22.33L31.68,62.49A19.64,19.64,0,0,0,24.83,79l1.5,19.25a13.48,13.48,0,0,1-4.24,11l-3.62,3.41a19.56,19.56,0,0,0-6.15,15.33l1.54,28.82h-.55a7.7,7.7,0,0,0-7.69,7.69v8.28a7.69,7.69,0,0,0,7.69,7.68H33.49v1.91h17.3v-8.65a42.24,42.24,0,1,1,84.47,0v8.65h17.31v-1.91h94.15l1.17-6Z" fill="#9ca3af"/><path d="M508.47,182.28v-1.91h20.45a7.68,7.68,0,0,0,7.68-7.68v-8.28a7.68,7.68,0,0,0-7.57-7.68L530,138a25.09,25.09,0,0,0-3.88-14.85L513,102.5a25.26,25.26,0,0,0-13.37-10.42L437.09,71.4l-122-48.13q-8.9-3.51-17.95-6.16a25.28,25.28,0,0,1,3.27,7.29c4.18,1.35,8.35,2.82,12.48,4.45l1.27.5c.16,0,.31,0,.47,0h.29l.59,0a11,11,0,0,1,8.38,3.88L435,77l62.83,20.76A19.16,19.16,0,0,1,508,105.72l13.12,20.68a19.06,19.06,0,0,1,3,11.31l-1.35,25h6.22a1.71,1.71,0,0,1,1.68,1.69v8.28a1.7,1.7,0,0,1-1.68,1.68H502.47v1.91h-5.31v-2.65a48.1,48.1,0,0,0-54.29-47.84,15,15,0,0,1,8.11,5.65,42.29,42.29,0,0,1,40.18,42.19v8.65Z" fill="#9ca3af"/><path d="M342.74,174.37l3.05,6h4.71a46.78,46.78,0,0,1-1.15-6Z" fill="#9ca3af"/><path d="M362.07,180.37h27.31v1.91h4.3v-7.91H360.49A30.52,30.52,0,0,0,362.07,180.37Z" fill="#9ca3af"/><path d="M93,158.86a14.68,14.68,0,0,0-14.69,13.39c0,.52-.07,1-.07,1.38a14.76,14.76,0,0,0,29.52,0c0-.43,0-.89-.06-1.4A14.67,14.67,0,0,0,93,158.86Zm0,23.53a8.77,8.77,0,0,1-8.76-8.76c0-.24,0-.51,0-.83a8.76,8.76,0,0,1,17.44,0c0,.31,0,.59,0,.85A8.77,8.77,0,0,1,93,182.39Z" fill="#9ca3af"/><path d="M453.84,142a31.8,31.8,0,0,1,27,28.66c.09,1,.14,2,.14,3a32,32,0,0,1-22.25,30.47v6.25a38.06,38.06,0,0,0,28.25-36.72c0-1.14-.06-2.29-.17-3.52a37.77,37.77,0,0,0-33.56-34.24,15.26,15.26,0,0,1,.64,4.35Z" fill="#9ca3af"/><path d="M463.69,173.63c0-.43,0-.89-.07-1.4a14.64,14.64,0,0,0-4.94-9.72v22.17A14.71,14.71,0,0,0,463.69,173.63Z" fill="#9ca3af"/><path d="M193.27,120.36l-4.45,5.19-.78-.4-1.74,3.37h0l-.91,1.76.46.24.55-1.07.49.26-.55,1.06.46.24.54-1.07.49.25-.55,1.07.46.23.55-1.06.48.25-.54,1.06.45.24.55-1.06.49.25-.55,1.06.46.24.55-1.07.48.25-.54,1.07.45.23.55-1.06.49.25-.55,1.07.46.23.55-1.06h0l2.1-4.07-.78-.41,3.68-4.29a6.41,6.41,0,0,1,3.73-2.14l12.68-2.28,0,0a10.89,10.89,0,0,1-1.86-4.71l-11.67,2.1A11.51,11.51,0,0,0,193.27,120.36Z" fill="#9ca3af"/><polygon points="256.91 112.69 266.82 110.9 266.59 109.63 281.22 106.99 279.94 102.14 265.7 104.7 265.5 103.59 255.59 105.38 255.79 106.49 248.85 107.74 239.12 114.57 256.68 111.41 256.91 112.69" fill="#9ca3af"/><path d="M363.64,188.82c-11.07-12.64-6.13-35.47-1.77-55.61,2.17-10,4.22-19.51,4.22-27.2,0-9.67-2.87-16.35-8.53-19.86-6.05-3.75-14-2.92-20.05-1.34l1.28,4.84c5.11-1.35,11.56-2.09,16.14.76,4.09,2.53,6.16,7.78,6.16,15.6,0,7.15-2,16.38-4.11,26.15-4.6,21.29-9.83,45.42,2.9,60,6.83,7.81,18,11.89,33.8,12.35v-5C379.41,199,369.51,195.53,363.64,188.82Z" fill="#9ca3af"/><path d="M272.12,40.5a10.47,10.47,0,0,1,2.38-1l23.66-6.25a22.78,22.78,0,0,0,0-4.74,22.5,22.5,0,1,0-33.69,22l2.2-4.67A11,11,0,0,1,272.12,40.5Z" fill="#9ca3af"/><path d="M330.65,70.59l5.59-4.2A8,8,0,0,0,337.66,55l-16-19.68a9.57,9.57,0,0,0-9.08-2.69l-37.36,9.87a7.43,7.43,0,0,0-1.81.75,8,8,0,0,0-4.1,3.93l-16.24,34.4-35.25,24.76a8,8,0,0,0,4.6,14.55,7.91,7.91,0,0,0,4.59-1.46l37-26a8,8,0,0,0,2.64-3.13l8.48-18,10.24,38.74-23.32,20a12.54,12.54,0,0,0-4.11,7.06l-12.24,63.06a12.51,12.51,0,0,0,9.85,14.68,12.67,12.67,0,0,0,2.43.24,12.5,12.5,0,0,0,12.25-10.09l11.4-58.81,23.47-20.19-5.82,14a12.52,12.52,0,0,0,.41,10.47l29.34,57.73a12.52,12.52,0,0,0,11.15,6.83,12.36,12.36,0,0,0,5.66-1.37,12.49,12.49,0,0,0,5.47-16.81l-26.73-52.59L338.86,111a12.43,12.43,0,0,0-.13-9.85Z" fill="#9ca3af"/><path d="M438.84,128.22H413.51a12,12,0,0,0-12,12v11h-4.83v58H409v6.83h34.34v-6.83h12.33v-58h-4.84v-11A12,12,0,0,0,438.84,128.22Zm11.67,30.17v7.33H418.85v-7.33Z" fill="#9ca3af"/><rect x="429.26" y="160.55" width="18.75" height="3" fill="#9ca3af"/><circle cx="401.51" cy="216.55" r="5" fill="#9ca3af"/><circle cx="450.85" cy="216.55" r="5" fill="#9ca3af"/><path d="M162.48,124a4.46,4.46,0,1,0,6.3.13A4.46,4.46,0,0,0,162.48,124ZM168,129.3a2.8,2.8,0,1,1,.08-4A2.81,2.81,0,0,1,168,129.3Z" fill="#9ca3af"/><path d="M173.66,122.13a3.78,3.78,0,0,0,5.34,0,4.2,4.2,0,0,0,5.3-6.36,3.79,3.79,0,0,0-5.71-5,4.22,4.22,0,0,0-5.36,6.44A3.78,3.78,0,0,0,173.66,122.13Zm.55-9.64a3.79,3.79,0,0,1,3.82-.92,3.9,3.9,0,0,0-.49,1.2,3.78,3.78,0,0,1,.52-.69,3.27,3.27,0,1,1,3.78,5.21,3.7,3.7,0,0,0,2.1-1.05l0,0a3.81,3.81,0,0,1-.8,4.21,3.77,3.77,0,0,1-3.58,1,3.78,3.78,0,0,0,.31-.64s-.06.09-.1.12a3.45,3.45,0,1,1-4.88-4.89l.12-.1a4,4,0,0,0-1.38.87s-.08.11-.13.16A3.8,3.8,0,0,1,174.21,112.49Z" fill="#9ca3af"/><path d="M161.78,110.21a3.34,3.34,0,0,0,6.39-1.62,3,3,0,0,0-1.37-5.86,3.36,3.36,0,0,0-6.46,1.65,3,3,0,0,0,1.44,5.83Zm.25-5.88h.13a3.1,3.1,0,0,0-1.29-.08l-.16,0a3,3,0,0,1,5.39-1.34,2.89,2.89,0,0,0-.87.54,2.73,2.73,0,0,1,.65-.2,2.6,2.6,0,1,1,.81,5.13,2.44,2.44,0,0,1-.81,0,3,3,0,0,0,1.85.3h0a3,3,0,0,1-5.25,1.3,3.38,3.38,0,0,0,.5-.27.53.53,0,0,1-.12,0,2.75,2.75,0,0,1-.86-5.43Z" fill="#9ca3af"/><path d="M131,171.58c0-.49-.06-1-.11-1.47a38,38,0,0,0-75.66,0c-.11,1.23-.17,2.38-.17,3.52a38,38,0,0,0,76,0c0-.18,0-.36,0-.53a1.23,1.23,0,0,0-.05-1.52ZM93,205.63a32,32,0,0,1-32-32c0-1,0-1.92.14-3a32,32,0,0,1,63.72,0c.09,1,.14,2,.14,3A32,32,0,0,1,93,205.63Z" fill="#9ca3af"/><circle cx="185.81" cy="101.76" r="2.48" fill="#9ca3af"/><path d="M210.4,134.06a4.46,4.46,0,1,0-5.61-2.87A4.46,4.46,0,0,0,210.4,134.06Zm-2.61-7a2.8,2.8,0,1,1-1.8,3.53A2.81,2.81,0,0,1,207.79,127.09Z" fill="#9ca3af"/><path d="M155,125.86,140.16,72.91a6,6,0,0,0-11.56,3.23l14.84,53a27.2,27.2,0,0,0,26.11,19.8H207a6,6,0,0,0,0-12H169.55A15.17,15.17,0,0,1,155,125.86Z" fill="#9ca3af"/></svg>