<svg xmlns="http://www.w3.org/2000/svg" viewBox="0 0 658 228"><path d="M603.72,207.55l1.95,2.57a12.48,12.48,0,0,0,21.88-3.86c-5.78.16-11.27.5-16.6.85C608.45,207.27,606.05,207.42,603.72,207.55Z" fill="#9ca3af"/><path d="M4.72,191.29H27.9v1.91H39.2v-5.66a45.24,45.24,0,0,1,90.47,0v5.66H141v-1.91H383.79v1.91H395.1v-5.66a45.24,45.24,0,0,1,90.47,0v5.66h11.31v-1.91h23.45A4.69,4.69,0,0,0,525,186.6v-8.28a4.69,4.69,0,0,0-4.68-4.68h-3.06l1.18-21.85A22.13,22.13,0,0,0,515,138.71L501.91,118a22.19,22.19,0,0,0-11.77-9.18l-62.67-20.7L305.37,40a204.51,204.51,0,0,0-88.26-14L82,34.62a16.64,16.64,0,0,0-9.69,3.91L25,78.69a16.57,16.57,0,0,0-5.8,13.94l1.5,19.25a16.56,16.56,0,0,1-5.17,13.38l-3.63,3.41a16.62,16.62,0,0,0-5.21,13l1.72,32H4.72A4.7,4.7,0,0,0,0,178.32v8.28A4.7,4.7,0,0,0,4.72,191.29ZM239.79,99.9l.49-6.2,26.26,2.08-.49,6.2ZM112.5,81.35l.87-6.16,26.08,3.67L138.59,85Zm103.73-.47-7.64-.54L112.18,65.48l-2.89-23.16L214.62,35.6ZM230.06,35a195.1,195.1,0,0,1,71.85,13.73l70.47,27.8,12.27,16.18L232.91,82.05l-7.21-47C227.16,35.05,228.61,35,230.06,35ZM78.41,45.72A7.14,7.14,0,0,1,82.6,44l18.93-1.21.61,21.12-32.59-5-3.4-2.78Z" fill="#9ca3af"/><path d="M123.86,187.54c0-1.23-.06-2.45-.17-3.65a39.42,39.42,0,0,0-78.5,0c-.11,1.2-.17,2.42-.17,3.65a39.42,39.42,0,0,0,78.84,0ZM84.44,213.13a25.62,25.62,0,0,1-25.59-25.59c0-.75,0-1.52.11-2.38a25.59,25.59,0,0,1,51,0c.07.83.11,1.61.11,2.38A25.62,25.62,0,0,1,84.44,213.13Z" fill="#9ca3af"/><path d="M96.2,187.54c0-.34,0-.71,0-1.12a11.76,11.76,0,0,0-23.42,0c0,.42-.06.78-.06,1.1a11.77,11.77,0,1,0,23.53,0Z" fill="#9ca3af"/><path d="M479.76,187.54c0-1.23-.07-2.45-.18-3.65a39.41,39.41,0,0,0-78.49,0c-.11,1.2-.18,2.42-.18,3.65a39.43,39.43,0,0,0,78.85,0Zm-39.42,25.59a25.63,25.63,0,0,1-25.6-25.59c0-.75,0-1.52.12-2.38a25.59,25.59,0,0,1,50.95,0c.08.83.12,1.61.12,2.38A25.62,25.62,0,0,1,440.34,213.13Z" fill="#9ca3af"/><path d="M452.1,187.54c0-.34,0-.71-.06-1.12a11.76,11.76,0,0,0-23.41,0c0,.42-.06.78-.06,1.1a11.77,11.77,0,1,0,23.53,0Z" fill="#9ca3af"/><path d="M554.31,131l-9.39,10a12.45,12.45,0,0,0-3.15,6.09l-10.67,53a12.5,12.5,0,0,0,9.79,14.72,12.35,12.35,0,0,0,2.48.25,12.5,12.5,0,0,0,12.24-10l7.07-35.1A115.61,115.61,0,0,0,554.31,131Z" fill="#9ca3af"/><path d="M450.58,87l-.1.3a2.35,2.35,0,0,0,1.5,3l34.39,11.33a2.35,2.35,0,0,0,3-1.5l.1-.3a2.36,2.36,0,0,0-1.5-3L479,93.86l-.35-4.39-3.15-1L477,83.94l-7-2.31-1.47,4.49-3.15-1-2.89,3.32-8.93-2.94A2.34,2.34,0,0,0,450.58,87Z" fill="#9ca3af"/><path d="M538.88,44.63a22.5,22.5,0,1,0-27.44-16.12A22.5,22.5,0,0,0,538.88,44.63Z" fill="#9ca3af"/><path d="M628.11,202.14a12.39,12.39,0,0,0-2.53-7.14l-26.87-35.36,1.68-37.75-26.27,27.93L573.54,163a12.49,12.49,0,0,0,2.53,8.12l24.65,32.44c-12.09.53-21.64,0-27.42-5.47-4.36-4.08-6.47-10.94-6.47-21,0-4.57-.21-9-.59-13.25q-.35-3.76-.86-7.38l.19-1,35.48-37.73a12.41,12.41,0,0,0,1.65-2.22c4-3.39,6.68-8.72,6.13-17.49C605.74,76,601,63.63,589.36,45.82c-8.56-12.91-21.7-14.28-29.43-10.07a10.35,10.35,0,0,0-1.41.92,8.13,8.13,0,0,0-1.35,1l-5.07,4.65L536.69,56.44,501.83,50.5a8,8,0,0,0-4.63.59L489,54.8A8,8,0,0,0,484.8,65l-7.06,4.68-6.19-2a2.72,2.72,0,0,0-3.45,1.74l-2.05,6.21a2.75,2.75,0,0,0,1.74,3.46l12.49,4.11a2.72,2.72,0,0,0,2.92-.81l9.5,3.13a10.29,10.29,0,0,1,2.23-7.17l.77-.94-9.79-3.23A2.73,2.73,0,0,0,484,71.79l-2.11-.69,4.8-3.19a8,8,0,0,0,8.78,1.48l6-2.71,8.53,1.45L537,66l26.86-19.15a10.16,10.16,0,0,1,6-1.92,10.3,10.3,0,0,1,6,18.69L562.52,73c5.23,11,10.71,23.83,12.3,36.2l-17.33,18.43c-.33-.77-.66-1.54-1-2.29-7.81-17.24-19-28.82-29.88-33.87l.63-1.93L522,87.84l-8.82.71L511,91.26c-.06.08-.13.14-.2.22l6.54,2.15.52-1.59,7.74,2.55.39-1.18c10.6,5,21.5,16.46,29,33.52.34.76.67,1.52,1,2.3l-.19.21a117.78,117.78,0,0,1,8.93,43.13c0,1.52.08,3.05.08,4.6,0,10.61,2.32,17.94,7.1,22.42,6.55,6.14,17,6.61,30.26,5.95l.07.08c2.73-.13,5.58-.32,8.56-.51,5.5-.36,11.19-.71,17.19-.86a.41.41,0,0,1,0-.11,153.52,153.52,0,0,1,29.24,1.76l.33-2A154.74,154.74,0,0,0,628.11,202.14Z" fill="#9ca3af"/><path d="M509.2,89.82l2.8-3.48L541.26,84a7.94,7.94,0,0,0,4-1.46L574.43,61.7a8,8,0,1,0-9.29-13L537.77,68.2l-30.5,2.47a8,8,0,0,0-5.59,3l-4.95,6.16a8,8,0,1,0,12.47,10Z" fill="#9ca3af"/><path d="M451.78,80.83a.93.93,0,1,0,.28-1.83,6.79,6.79,0,0,0-5.37,1.13,7.06,7.06,0,0,0-2.48,4.49.92.92,0,0,0,.81,1h.1a.92.92,0,0,0,.92-.82,5.31,5.31,0,0,1,1.79-3.24A5,5,0,0,1,451.78,80.83Z" fill="#9ca3af"/><path d="M441.06,83.56h.15a.93.93,0,0,0,.91-.77,7.61,7.61,0,0,1,9.8-6.1.92.92,0,1,0,.34-1.81c-3.21-.61-5.91-.17-8,1.32a10.33,10.33,0,0,0-3.93,6.29A.93.93,0,0,0,441.06,83.56Z" fill="#9ca3af"/></svg>