<svg xmlns="http://www.w3.org/2000/svg" viewBox="0 0 525 216"><path d="M520,162.24H516.9l1.18-21.85a22.2,22.2,0,0,0-3.42-13.08l-13.12-20.69a22.25,22.25,0,0,0-11.78-9.18L427.1,76.74,382.84,59.28a12.85,12.85,0,0,1-6,2.94l-8.16,1.61L372,65.14l12.26,16.18L346.92,78.7l4.67,17.67a17.48,17.48,0,0,1-.12,13.65l-18.13,41.67,13,28.2h37.05v1.9h11.3v-5.65a45.24,45.24,0,0,1,90.47,0v5.65H496.5v-1.9H520a4.7,4.7,0,0,0,4.69-4.69v-8.28A4.7,4.7,0,0,0,520,162.24Z" fill="#9ca3af"/><path d="M256.66,149.23A17.55,17.55,0,0,1,261.18,138l27.18-30L280.9,79.72,275.39,88a12.92,12.92,0,0,1-8,5.45l-27.18,6,2.63,5.42a2.87,2.87,0,0,1-1.77,4l-28.21,8.29a2.84,2.84,0,0,1-3.33-1.41l-8.66-16.49a2.85,2.85,0,0,1,1.85-4.1L208,93.87c0-.18-.1-.35-.15-.54a13,13,0,0,1,9.87-15.51l28.08-6.24-13.22-.93-7.2-47c1.45,0,2.91-.07,4.35-.07a195,195,0,0,1,30.95,2.48,26.25,26.25,0,0,1,.6-9.44,203.16,203.16,0,0,0-44.5-2L81.62,23.22a16.62,16.62,0,0,0-9.68,3.91L24.65,67.29a16.63,16.63,0,0,0-5.8,13.94l1.51,19.25a16.57,16.57,0,0,1-5.18,13.38l-3.63,3.41a16.61,16.61,0,0,0-5.2,13l1.71,32H4.34a4.69,4.69,0,0,0-4.68,4.68v8.28a4.69,4.69,0,0,0,4.68,4.69H27.52v1.9H38.83v-5.65a45.24,45.24,0,0,1,90.47,0v5.65h11.3v-1.9H255.78ZM113,63.79l26.09,3.67-.87,6.16L112.12,70Zm79.12,36.83a.94.94,0,0,1-.5,1.13l-.1,0a.93.93,0,0,1-1.16-.6,7.12,7.12,0,0,1,.43-5.11,6.83,6.83,0,0,1,4.44-3.23.92.92,0,1,1,.5,1.78,5.08,5.08,0,0,0-3.3,2.31A5.24,5.24,0,0,0,192.11,100.62Zm2-9.8a8.42,8.42,0,0,0-5.63,3.63,8.57,8.57,0,0,0-.82,5.93.92.92,0,0,1-.51,1.08l-.15.05a.93.93,0,0,1-1.13-.65,10.36,10.36,0,0,1,1-7.35A10.25,10.25,0,0,1,193.73,89a.92.92,0,1,1,.42,1.8Zm58.6,24.29a8.57,8.57,0,0,0,1.29-5.85.93.93,0,0,1,.6-1l.15,0a.92.92,0,0,1,1.07.75,9.45,9.45,0,0,1-8.74,11.17.92.92,0,0,1-1.05-.77.93.93,0,0,1,.77-1.06A8.49,8.49,0,0,0,252.75,115.11Zm-7.16-.77a5,5,0,0,0,3.47-2,5.2,5.2,0,0,0,.6-3.65.93.93,0,0,1,.6-1.08l.09,0a.92.92,0,0,1,1.11.68,7.08,7.08,0,0,1-.84,5.07,6.81,6.81,0,0,1-4.68,2.86.93.93,0,1,1-.35-1.82Zm-34,5.78,28.21-8.3a2.7,2.7,0,0,0,.6-.25,2.86,2.86,0,0,1-2,3.39l-28.21,8.29a2.85,2.85,0,0,1-3.34-1.41l-8.66-16.49a2.84,2.84,0,0,1,1.13-3.8,2.61,2.61,0,0,0,.25.67l8.66,16.49A2.86,2.86,0,0,0,211.64,120.12Zm-3.43-51.18L111.8,54.08l-2.88-23.16L214.24,24.2l1.61,45.28ZM78,34.32a7.08,7.08,0,0,1,4.18-1.69l18.94-1.21.61,21.12-32.59-5-3.41-2.78Z" fill="#9ca3af"/><path d="M298.27,159.24a17.54,17.54,0,0,1-1.58-8.32l-5.23,5.77-.67,23.2h17Z" fill="#9ca3af"/><path d="M123.48,176.14c0-1.23-.06-2.45-.17-3.65a39.41,39.41,0,0,0-78.49,0c-.11,1.2-.18,2.42-.18,3.65a39.42,39.42,0,1,0,78.84,0ZM84.07,201.73a25.62,25.62,0,0,1-25.6-25.59c0-.75,0-1.53.12-2.38a25.59,25.59,0,0,1,51,0c.08.83.11,1.61.11,2.38A25.61,25.61,0,0,1,84.07,201.73Z" fill="#9ca3af"/><path d="M95.83,176.14c0-.34,0-.71-.06-1.12a11.76,11.76,0,0,0-23.41,0c0,.42-.06.78-.06,1.1a11.77,11.77,0,1,0,23.53,0Z" fill="#9ca3af"/><path d="M479.38,176.14c0-1.23-.06-2.45-.17-3.65a39.42,39.42,0,0,0-78.5,0c-.11,1.2-.17,2.42-.17,3.65a39.42,39.42,0,0,0,78.84,0ZM440,201.73a25.62,25.62,0,0,1-25.59-25.59c0-.75,0-1.53.11-2.38a25.59,25.59,0,0,1,51,0c.07.83.11,1.61.11,2.38A25.62,25.62,0,0,1,440,201.73Z" fill="#9ca3af"/><path d="M451.72,176.14c0-.34,0-.71-.05-1.12a11.76,11.76,0,0,0-23.42,0c0,.42-.06.78-.06,1.1a11.77,11.77,0,1,0,23.53,0Z" fill="#9ca3af"/><path d="M265.63,30.34a4.36,4.36,0,0,0-1.82,5.51l7.74,8.37a4.17,4.17,0,0,0,2.91,1.31,3.88,3.88,0,0,0,.48,0l2.08-3.1-.34.13-.69.27c-1.29.51-1.83.73-2.81-.19l-6.52-7,6.82-4.33-.65-1-7,4.45h0a2.15,2.15,0,0,1,1.06-2.42l9.88-6.38a2.72,2.72,0,0,1,2.16-.38,1.63,1.63,0,0,1,1.08.83l4.69,9.46a9.29,9.29,0,0,1,1-.22l6.1-1.38,16.89-5.49A22.4,22.4,0,0,0,306.9,12.6a21.87,21.87,0,0,0-1.38-2.3L281.89,25.07a3.93,3.93,0,0,0-2.37-1.77l-.34-.07L303.66,7.92a22.5,22.5,0,0,0-38,22.4Z" fill="#9ca3af"/><polygon points="275.09 30.25 277.45 28.75 276.81 27.74 274.45 29.24 274.77 29.75 275.09 30.25" fill="#9ca3af"/><path d="M372.22,38.68a10.91,10.91,0,0,1,7.46,1.18V31.69h-3.19v-9a2.48,2.48,0,0,0-4.95,0v9h-3.19v7.75Z" fill="#9ca3af"/><path d="M330.94,31.39a8,8,0,0,0-5.38-1.69l-.07,0-.25.06a8,8,0,0,0-2,.45l-37,8.36A8,8,0,0,0,280.91,42L259.72,73.6l-41,9.1a8,8,0,0,0,3.47,15.62l44.09-9.8a8,8,0,0,0,4.91-3.35l11.68-17.43,11,41.55-29,32.06a12.49,12.49,0,0,0-3.23,8l-1.5,52a12.51,12.51,0,0,0,12.14,12.86h.36a12.49,12.49,0,0,0,12.49-12.14l1.37-47.39,24.65-27.25-8.47,19.46a12.48,12.48,0,0,0,.11,10.24L326.31,208A12.5,12.5,0,1,0,349,197.49l-21.14-45.74,19-43.72a12.45,12.45,0,0,0,0-10L335.6,55.41l7.11,5.6a8,8,0,0,0,6.49,1.56l26.69-5.25a8,8,0,0,0-3.09-15.7l-23.08,4.54Z" fill="#9ca3af"/></svg>