<svg xmlns="http://www.w3.org/2000/svg" viewBox="0 0 337 226"><path d="M21.82,180.1A25,25,0,0,1,7,175.25v24.3a2.76,2.76,0,0,0,2.75,2.76h25.1a2.76,2.76,0,0,0,2.75-2.76V180.1Z" fill="#9ca3af"/><path d="M240.84,175.51a24.87,24.87,0,0,1-9.93,4.17l-.65,22.63h8.17a2.76,2.76,0,0,0,2.75-2.76v-23.3Z" fill="#9ca3af"/><path d="M196.05,174.49l.43-15A17.49,17.49,0,0,1,201,148.3l27.18-30.05L220.72,90l-5.52,8.23a13,13,0,0,1-8,5.46l-28.56,6.34a5.47,5.47,0,0,1,.16.7c.67,5.39-7.31,10.81-17.8,12.11s-19.56-2-20.22-7.39a5.24,5.24,0,0,1,.19-2.15c1.47,4.87,10.09,7.77,20,6.54,10.36-1.28,18.24-6.58,17.8-11.89l-.61.13c-2,4.19-8.8,7.86-17.19,8.9-10.5,1.3-19.56-2-20.22-7.4-.39-3.15,2.2-6.32,6.51-8.66a13,13,0,0,1,10.18-12.82l39-8.67,3.29-4.91H31.11A3.59,3.59,0,0,1,28,69.23l29.4-53.61a11,11,0,0,1,9.45-5.71l57.26-1,57.27,1a11,11,0,0,1,9.44,5.71l8,14.52a27.37,27.37,0,0,1,4.53-11.2L199,11.12A20.35,20.35,0,0,0,181.52.56l-57.44-1L66.65.56A20.38,20.38,0,0,0,49.16,11.12L28.74,48.37H4.19c-5,0-5,18.13,0,18.13h14.6L8.42,85.43a49.64,49.64,0,0,0-6.13,23.89V155a19.55,19.55,0,0,0,19.53,19.53H196.05Zm-5.22-62.69a12.54,12.54,0,0,1,2.21-.29c-2.82,1.13-4.64,2.82-4.32,4.27.42,1.86,4.19,2.61,8.43,1.67l.23,0a10.82,10.82,0,0,1-4.8,2.3c-3.92.87-7.48-.2-8-2.38S186.91,112.67,190.83,111.8Zm-55.4-21.49a12.42,12.42,0,0,1,2.21-.29c-2.83,1.12-4.64,2.82-4.32,4.27.41,1.86,4.19,2.61,8.43,1.67l.23-.06a10.73,10.73,0,0,1-4.8,2.31c-3.92.86-7.49-.2-8-2.38S131.51,91.17,135.43,90.31Zm0,32.47a13.41,13.41,0,0,1,2.21-.29c-2.83,1.13-4.64,2.82-4.32,4.27.41,1.87,4.19,2.61,8.43,1.68l.23-.06a10.72,10.72,0,0,1-4.8,2.3c-3.92.87-7.49-.19-8-2.38S131.51,123.65,135.43,122.78ZM18.75,98.43A11.44,11.44,0,0,1,30.83,87.67a11.68,11.68,0,0,1,4.22,1.08l26.74,12.61A5.71,5.71,0,0,1,59,112.22l-29.51-1.71A11.43,11.43,0,0,1,18.75,98.43ZM88.69,160V147.1a2,2,0,0,1,2-2H157.5a2,2,0,0,1,2,2V160a2,2,0,0,1-2,2H90.67A2,2,0,0,1,88.69,160Z" fill="#9ca3af"/><path d="M236.5,161.22,231.28,167l-.2,6.89a19.47,19.47,0,0,0,7.35-3.59l-.34-.74A17.47,17.47,0,0,1,236.5,161.22Z" fill="#9ca3af"/><rect x="109.35" y="13.13" width="29.47" height="7.42" fill="#9ca3af"/><path d="M203.54,37.08a22.49,22.49,0,0,0,12,17.48l2.65-4a11,11,0,0,1,7.28-4.71l22-5a22.5,22.5,0,1,0-43.94-3.84Z" fill="#9ca3af"/><path d="M317.79,39c-10.52,0-19.05,1.67-19.05,3.74h0V50.8h0s0,0,0,.05a1,1,0,0,0,.33.68L312,49a11,11,0,0,1,11.72,5.43l2.16-.17c6.45-.6,10.92-1.89,10.92-3.39,0,0,0,0,0-.05h0V42.71h0C336.83,40.63,328.31,39,317.79,39ZM302.6,42.35c0-1,6.8-1.83,15.19-1.83S333,41.34,333,42.35s-6.8,1.84-15.19,1.84S302.6,43.37,302.6,42.35Z" fill="#9ca3af"/><path d="M312.61,51.92l-23.08,4.54L270.75,41.69A8,8,0,0,0,265.38,40l-.08,0-.25.06a8.68,8.68,0,0,0-2,.45l-37,8.36a8,8,0,0,0-5.37,3.44L199.54,83.9l-41,9.11A8,8,0,1,0,162,108.62l44.1-9.8a8,8,0,0,0,4.91-3.35L222.72,78l11,41.55-29,32.06a12.5,12.5,0,0,0-3.22,8l-1.5,52a12.49,12.49,0,0,0,12.13,12.85h.37A12.51,12.51,0,0,0,225,212.4l1.36-47.4L251,137.76l-8.47,19.45a12.56,12.56,0,0,0,.11,10.24l23.5,50.83a12.5,12.5,0,0,0,22.7-10.49l-21.15-45.74,19-43.72a12.45,12.45,0,0,0,0-10L275.41,65.72l7.11,5.59A8,8,0,0,0,289,72.87l26.69-5.25a8,8,0,1,0-3.09-15.7Z" fill="#9ca3af"/></svg>