<svg xmlns="http://www.w3.org/2000/svg" viewBox="0 0 516 312"><path d="M234.74,10A4.94,4.94,0,1,0,229.8,5,4.94,4.94,0,0,0,234.74,10Zm0-7.37A2.44,2.44,0,1,1,232.3,5,2.44,2.44,0,0,1,234.74,2.58Z" fill="#9ca3af"/><path d="M345.87,57A10.83,10.83,0,1,0,335,46.13,10.84,10.84,0,0,0,345.87,57Zm0-19.16a8.33,8.33,0,1,1-8.33,8.33A8.34,8.34,0,0,1,345.87,37.8Z" fill="#9ca3af"/><path d="M282.2,133.48a11.44,11.44,0,0,0,10.37,11.38l-1.09,2H266.93c-5,0-5,18.13,0,18.13h14.61l-4.05,7.38a6.85,6.85,0,0,0-4.23-1.45,6.91,6.91,0,0,0-2.32,13.43c-.66,1.23-1.25,2.48-1.8,3.75a9.94,9.94,0,0,0-14.1,11.5l-20.47-2.5a6.95,6.95,0,1,0-1.73-.21l-28.71-3.5-.24,2,52,6.34a10.32,10.32,0,0,0,1.77,2.33l-41.22-5.72-.14,1,42.87,5.95a9.9,9.9,0,0,0,5.45,1.63l.45,0c0,.31,0,.62,0,.93v7a9.64,9.64,0,0,0-1.08-.06,9.94,9.94,0,0,0-6.29,2.25l-47.41-17.37-.34.94,46.93,17.19a10.15,10.15,0,0,0-1.64,2.21l-52.38-20.37-.73,1.87,52.35,20.35a9.79,9.79,0,0,0-.43,2.88,9.69,9.69,0,0,0,.45,3l-.36,0a18.26,18.26,0,0,0,0,36.52h.19a10.77,10.77,0,0,0,10.15,7.22,11.55,11.55,0,0,0,1.78-.16,10.73,10.73,0,0,0,5.71-2.89A19.54,19.54,0,0,0,284.56,273H489.09a19.51,19.51,0,0,0,19.52-19.52h0V207.8a49.7,49.7,0,0,0-6.12-23.9L492.12,165h14.6c5,0,5-18.13,0-18.13H482.17L461.74,109.6A20.34,20.34,0,0,0,444.26,99l-57.43-1h-.55a7.06,7.06,0,0,0,.36-2.21,6.92,6.92,0,1,0-13.84,0,7,7,0,0,0,.45,2.44l-18.33.33a13.63,13.63,0,0,0-27.26.31c0,.09,0,.17,0,.25a20.35,20.35,0,0,0-15.77,10.46l-9.26,16.89a11.41,11.41,0,0,0-20.45,7Zm-47.68,52.27a4.42,4.42,0,1,1-4.43,4.42A4.43,4.43,0,0,1,234.52,185.75Zm66.78-56.81-7.38,13.46h-.29a8.93,8.93,0,1,1,7.67-13.47Zm-6.95,48.81a7.45,7.45,0,1,1,7.45-7.45A7.46,7.46,0,0,1,294.35,177.75Zm-12.86,19.16a11.43,11.43,0,0,1,12.08-10.76,11.83,11.83,0,0,1,4.22,1.07l26.74,12.62a5.71,5.71,0,0,1-2.76,10.86L292.25,209A11.43,11.43,0,0,1,281.49,196.91Zm62.22,7.23a4.42,4.42,0,1,1,4.42,4.42A4.42,4.42,0,0,1,343.71,204.14Zm-79.26,64.72a8.27,8.27,0,1,1,8.26-8.27A8.27,8.27,0,0,1,264.45,268.86Zm-10.34-38.73c.54,0,1.06,0,1.59.08a9.92,9.92,0,0,0,8.26,4.43c.37,0,.72,0,1.08-.06v15.28c-.2,0-.39,0-.59,0a10.77,10.77,0,0,0-10.76,10.76c0,.35,0,.7.05,1a15.75,15.75,0,0,1,.37-31.5Zm2.41-5.44a7.45,7.45,0,1,1,7.44,7.45A7.45,7.45,0,0,1,256.52,224.69Zm.66-27.74a7.45,7.45,0,1,1,7.44,7.44A7.45,7.45,0,0,1,257.18,197Zm20.51-19.12a4.43,4.43,0,1,1-4.43-4.42A4.43,4.43,0,0,1,277.69,177.83ZM300.88,245a8.26,8.26,0,1,1-8.26-8.26A8.27,8.27,0,0,1,300.88,245Zm121.34,13.47a2,2,0,0,1-2,2H353.41a2,2,0,0,1-2-2V245.58a2,2,0,0,1,2-2h66.83a2,2,0,0,1,2,2Zm-54.29-72.77a4.42,4.42,0,1,1,4.42,4.42A4.42,4.42,0,0,1,367.93,185.67Zm123.16,7A11.43,11.43,0,0,1,481.4,209l-29.51,1.71a5.71,5.71,0,0,1-2.77-10.86l26.74-12.62A11.45,11.45,0,0,1,491.09,192.69ZM375.3,95.81a4.42,4.42,0,1,1,8.21,2.26l-7.5.13A4.44,4.44,0,0,1,375.3,95.81ZM330.17,99s0-.08,0-.13a11.13,11.13,0,0,1,22.26-.27ZM320.11,114.1a11,11,0,0,1,9.45-5.71l57.26-1,57.27,1a11,11,0,0,1,9.45,5.71l29.4,53.61A3.59,3.59,0,0,1,479.8,173H303.91a9.77,9.77,0,0,0,.39-2.72,10,10,0,0,0-9.56-9.92Z" fill="#9ca3af"/><path d="M239.28,224.78a5.07,5.07,0,1,0-5.07,5.07A5.08,5.08,0,0,0,239.28,224.78Zm-5.07,2.57a2.57,2.57,0,1,1,2.57-2.57A2.58,2.58,0,0,1,234.21,227.35Z" fill="#9ca3af"/><path d="M199.14,230.7a9.89,9.89,0,1,0,9.89-9.89A9.9,9.9,0,0,0,199.14,230.7Zm2.5,0a7.39,7.39,0,1,1,7.39,7.39A7.39,7.39,0,0,1,201.64,230.7Z" fill="#9ca3af"/><path d="M306.51,101.52A9.57,9.57,0,1,0,297,92,9.57,9.57,0,0,0,306.51,101.52Zm0-16.63A7.07,7.07,0,1,1,299.45,92,7.08,7.08,0,0,1,306.51,84.89Z" fill="#9ca3af"/><path d="M284.56,278.58a25,25,0,0,1-14.84-4.85V298a2.76,2.76,0,0,0,2.76,2.75h25.09a2.76,2.76,0,0,0,2.76-2.75V278.58Z" fill="#9ca3af"/><path d="M489.09,278.58H473.33V298a2.75,2.75,0,0,0,2.75,2.75h25.09a2.76,2.76,0,0,0,2.76-2.75v-24.3A25,25,0,0,1,489.09,278.58Z" fill="#9ca3af"/><rect x="372.09" y="111.61" width="29.47" height="7.42" fill="#9ca3af"/><path d="M161.18,195a3.4,3.4,0,0,0-4.13,2.16l-9.56,27.75a3.39,3.39,0,0,0,2.29,4.37l17.6,4.93a3.4,3.4,0,0,0,4.23-2.54l6.24-28.68a3.39,3.39,0,0,0-2.39-4Zm14.32,7.48-6.25,28.67a1,1,0,0,1-.45.64,1,1,0,0,1-.77.1l-17.6-4.93a1,1,0,0,1-.61-.49,1,1,0,0,1,0-.78l9.56-27.75a1,1,0,0,1,1.2-.62l14.27,4A1,1,0,0,1,175.5,202.43Z" fill="#9ca3af"/><path d="M154.65,187.18l7.8,2.19-.89,3.17,14.82,4.16.62-2.22,8.77,2.46.49-1.75L199.67,199l.86-3.06-13.41-3.76.49-1.75-8.77-2.46.62-2.21-14.82-4.15-.89,3.17-7.9-2.22A10.29,10.29,0,0,1,154.65,187.18Z" fill="#9ca3af"/><rect x="165.27" y="225.54" width="3.61" height="1.61" transform="translate(-90.29 339.97) rotate(-77.39)" fill="#9ca3af"/><rect x="160.91" y="211.01" width="18.81" height="1.61" transform="translate(-73.57 331.78) rotate(-77.39)" fill="#9ca3af"/><path d="M55.68,283.36a12.5,12.5,0,1,0,20.84,13.8C90.53,276,95,256.59,95,240.58l-29.62-24C71.16,230.92,74.65,254.7,55.68,283.36Z" fill="#9ca3af"/><path d="M114.14,275.38c-.22,2.09-.42,4.11-.64,6.08l4.1,12.94a12.51,12.51,0,0,0,11.92,8.73,12.35,12.35,0,0,0,3.77-.59,12.5,12.5,0,0,0,8.15-15.69l-17.53-55.33a12.51,12.51,0,0,0-1.42-3C117.32,244.42,115.63,260.82,114.14,275.38Z" fill="#9ca3af"/><path d="M122.71,134.14A22.5,22.5,0,1,0,105,107.74,22.5,22.5,0,0,0,122.71,134.14Z" fill="#9ca3af"/><path d="M99.64,142.62A8,8,0,1,0,84.58,148L97.9,185.22a8,8,0,0,0,7.53,5.3,7.26,7.26,0,0,0,.8,0l32.71-3.28,1.35,1.18a8,8,0,0,0,10.54-12l-4-3.47a8,8,0,0,0-6.06-1.94l-29.94,3Z" fill="#9ca3af"/><path d="M40.46,306.28c7.67,3.89,18,4.68,29.9,4.68,3.92,0,8-.08,12.25-.17,4.5-.09,9.15-.19,13.9-.19,10,0,12.47-12,14.46-29.53.21-1.83.41-3.72.62-5.67l0,.09c0-.12,0-.24,0-.37,1.48-14.39,3.31-32.22,9-48.87l-.15-.14c.26-.79.52-1.57.8-2.35a88.22,88.22,0,0,1,16-28.67l.67.73,4.1-3.77a10.43,10.43,0,0,1-3.29-1.94l-.6-.52-.62.06-2.85,2.63.89,1a90,90,0,0,0-16.4,28.84q-.42,1.15-.81,2.31L84.78,197.06h0a107,107,0,0,1,7.77-19.95L82.41,148.78a10.3,10.3,0,0,1,6.23-13.16,10.07,10.07,0,0,1,3.47-.61,10.33,10.33,0,0,1,9.7,6.83l4.07,11.38c5.25-8.46,5.23-20.17-1.9-24.73-7.41-4.74-20.61-4.31-30.06,8C61,153.39,55.44,165.37,50.79,187.24a24.23,24.23,0,0,0,.94,11.82A12.41,12.41,0,0,0,56,205.88l4.6,3.75,40.61,33,8.49,26.82c-.15,1.43-.3,2.84-.45,4.22l-.15,1.48c-2,19.21-3.72,32.94-12.59,32.94-4.78,0-9.44.1-14,.19-16.82.35-31.34.65-41-4.24-12.72-6.46-40.26-3.56-41.43-3.43l.27,2.49C.71,303.08,28.4,300.16,40.46,306.28Z" fill="#9ca3af"/><path d="M319.81,159a8.49,8.49,0,1,0-8.49-8.49A8.5,8.5,0,0,0,319.81,159Zm0-14.48a6,6,0,1,1-6,6A6,6,0,0,1,319.81,144.47Z" fill="#9ca3af"/><path d="M244.53,175a6.93,6.93,0,1,0-6.92-6.93A6.94,6.94,0,0,0,244.53,175ZM249,168a4.43,4.43,0,1,1-4.43-4.42A4.44,4.44,0,0,1,249,168Z" fill="#9ca3af"/><path d="M235.19,277.82a6.92,6.92,0,1,0,6.92-6.92A6.93,6.93,0,0,0,235.19,277.82Zm6.92,4.42a4.42,4.42,0,1,1,4.42-4.42A4.42,4.42,0,0,1,242.11,282.24Z" fill="#9ca3af"/><path d="M184.11,262.85a6.92,6.92,0,1,0,6.92-6.92A6.93,6.93,0,0,0,184.11,262.85Zm2.5,0a4.42,4.42,0,1,1,4.42,4.42A4.42,4.42,0,0,1,186.61,262.85Z" fill="#9ca3af"/><path d="M203.8,53.55a4.94,4.94,0,1,0-4.94-4.94A5,5,0,0,0,203.8,53.55Zm0-7.38a2.44,2.44,0,1,1-2.44,2.44A2.45,2.45,0,0,1,203.8,46.17Z" fill="#9ca3af"/><path d="M253.78,53.55a4.94,4.94,0,1,0-4.94-4.94A5,5,0,0,0,253.78,53.55Zm0-7.38a2.44,2.44,0,1,1-2.44,2.44A2.45,2.45,0,0,1,253.78,46.17Z" fill="#9ca3af"/><path d="M370.92,72.53A4.94,4.94,0,1,0,366,67.59,5,5,0,0,0,370.92,72.53Zm0-7.38a2.44,2.44,0,1,1-2.44,2.44A2.44,2.44,0,0,1,370.92,65.15Z" fill="#9ca3af"/><path d="M185.69,129.94a4.94,4.94,0,1,0-4.94-4.94A5,5,0,0,0,185.69,129.94Zm0-7.38a2.44,2.44,0,1,1-2.44,2.44A2.45,2.45,0,0,1,185.69,122.56Z" fill="#9ca3af"/><path d="M256.54,110a6.93,6.93,0,1,0,6.93-6.92A6.93,6.93,0,0,0,256.54,110Zm6.93-4.42A4.42,4.42,0,1,1,259,110,4.43,4.43,0,0,1,263.47,105.59Z" fill="#9ca3af"/><path d="M306.73,44.6a6.92,6.92,0,1,0-6.92-6.92A6.92,6.92,0,0,0,306.73,44.6Zm0-11.34a4.42,4.42,0,1,1-4.42,4.42A4.42,4.42,0,0,1,306.73,33.26Z" fill="#9ca3af"/><path d="M363.21,90.4a6.92,6.92,0,1,0-6.92-6.92A6.92,6.92,0,0,0,363.21,90.4Zm0-11.34a4.42,4.42,0,1,1-4.42,4.42A4.42,4.42,0,0,1,363.21,79.06Z" fill="#9ca3af"/><path d="M283.94,115.39a6.92,6.92,0,1,0-6.92-6.92A6.92,6.92,0,0,0,283.94,115.39Zm0-11.34a4.42,4.42,0,1,1-4.42,4.42A4.42,4.42,0,0,1,283.94,104.05Z" fill="#9ca3af"/><path d="M231.11,133.57a6.93,6.93,0,1,0,6.93-6.92A6.93,6.93,0,0,0,231.11,133.57ZM238,138a4.42,4.42,0,1,1,4.42-4.42A4.43,4.43,0,0,1,238,138Z" fill="#9ca3af"/><path d="M285.59,81.48a6.92,6.92,0,1,0-6.92-6.92A6.93,6.93,0,0,0,285.59,81.48Zm0-11.34a4.42,4.42,0,1,1-4.42,4.42A4.44,4.44,0,0,1,285.59,70.14Z" fill="#9ca3af"/><path d="M224.93,87.54A6.92,6.92,0,1,0,218,80.62,6.94,6.94,0,0,0,224.93,87.54Zm0-11.34a4.42,4.42,0,1,1-4.42,4.42A4.43,4.43,0,0,1,224.93,76.2Z" fill="#9ca3af"/><path d="M416.38,66.07a6.92,6.92,0,1,0-6.92-6.92A6.93,6.93,0,0,0,416.38,66.07Zm0-11.34A4.42,4.42,0,1,1,412,59.15,4.43,4.43,0,0,1,416.38,54.73Z" fill="#9ca3af"/><path d="M331.07,77.11a6.93,6.93,0,1,0-6.93-6.92A6.94,6.94,0,0,0,331.07,77.11Zm4.42-6.92a4.43,4.43,0,1,1-4.42-4.43A4.43,4.43,0,0,1,335.49,70.19Z" fill="#9ca3af"/><path d="M358.26,167a6.93,6.93,0,1,0-6.93-6.93A6.94,6.94,0,0,0,358.26,167Zm0-11.35a4.43,4.43,0,1,1-4.43,4.42A4.43,4.43,0,0,1,358.26,155.68Z" fill="#9ca3af"/><path d="M364,141.15a6.92,6.92,0,1,0-6.92-6.92A6.92,6.92,0,0,0,364,141.15Zm0-11.34a4.42,4.42,0,1,1-4.42,4.42A4.42,4.42,0,0,1,364,129.81Z" fill="#9ca3af"/><path d="M335.25,134.33a6.92,6.92,0,1,0-6.93-6.92A6.94,6.94,0,0,0,335.25,134.33Zm0-11.34a4.42,4.42,0,1,1-4.43,4.42A4.43,4.43,0,0,1,335.25,123Z" fill="#9ca3af"/><path d="M436.7,167.87a6.93,6.93,0,1,0-6.92-6.92A6.94,6.94,0,0,0,436.7,167.87Zm0-11.35a4.43,4.43,0,1,1-4.42,4.43A4.43,4.43,0,0,1,436.7,156.52Z" fill="#9ca3af"/></svg>