<svg xmlns="http://www.w3.org/2000/svg" xmlns:xlink="http://www.w3.org/1999/xlink" viewBox="0 0 3205.26 1409.5"><defs><linearGradient id="a" x1="1604.66" y1="677.22" x2="1604.66" y2="50.77" gradientUnits="userSpaceOnUse"><stop offset="0" stop-color="#fafafa"/><stop offset="0.14" stop-color="#9c9c9c"/><stop offset="0.29" stop-color="#fafafa"/><stop offset="0.48" stop-color="#9c9c9c"/><stop offset="0.62" stop-color="#fafafa"/><stop offset="0.77" stop-color="#9c9c9c"/><stop offset="1" stop-color="#fafafa"/></linearGradient><linearGradient id="h" x1="729.02" y1="1299.46" x2="729.02" y2="924.17" gradientTransform="matrix(1, -0.04, 0.04, 1, -35.62, 69.98)" gradientUnits="userSpaceOnUse"><stop offset="0.19" stop-color="#29abe2"/><stop offset="1" stop-color="#a7fcfe"/></linearGradient><linearGradient id="i" x1="1570.93" y1="1004.37" x2="1570.93" y2="853.6" gradientTransform="matrix(1.02, -0.15, 0.15, 0.99, -89.61, 250.27)" xlink:href="#h"/><linearGradient id="j" x1="2493.9" y1="1152.29" x2="2493.9" y2="737.28" xlink:href="#h"/></defs><path d="M72.85,599.94a22.53,22.53,0,0,1,7.54-11.48,22.87,22.87,0,0,1,12.83-5l256.27-21q8.46-.17,10-7.18L370.34,513q2.1-6.54-6.31-5.84L185.11,521.85a109.87,109.87,0,0,1-37.86-3Q129.91,514.2,118.49,504a53.24,53.24,0,0,1-15.87-25.46q-4.43-15.26.85-34.77l14.77-59a112.47,112.47,0,0,1,14.44-33.77,133.23,133.23,0,0,1,24.66-28.78,125.73,125.73,0,0,1,33.5-21,129.79,129.79,0,0,1,41-10L535,266.39q-5.21,20.57-9.12,37.3T517.26,341q-3.91,16.76-20.76,18.13L205.5,383a5.32,5.32,0,0,0-5.2,4.4,5.6,5.6,0,0,0,2.38,6.43l28.82,22-3.13,13.5q-1.59,6.49,6.31,5.84l179.44-14.73q20.53-1.68,37.6,3t28.5,14.88a53.29,53.29,0,0,1,15.87,25.45q4.43,15.27-.86,34.77l-14.76,59A148.06,148.06,0,0,1,466.27,591a117.54,117.54,0,0,1-23.08,28.65,125.18,125.18,0,0,1-31.92,20.9q-18.13,8.38-40.75,10.23L47.94,677.22Z" fill="#fff"/><path d="M504.7,639.72q4.07-15.16,10.46-40.33t14.5-55.76q8.08-30.58,16.65-64.94t17-67.61q8.38-33.27,16-63.56T592.34,294l-32.82-19q-3.9-2.33-2.91-6.38a5.33,5.33,0,0,1,5.2-4.4l350.47-28.78q22.62-1.84,39.79,3.89t27.85,16.52a53.88,53.88,0,0,1,14.3,25.84,61.78,61.78,0,0,1-.87,31.33L968,411a122.51,122.51,0,0,1-14.21,33.48,124.43,124.43,0,0,1-24.37,29,131.61,131.61,0,0,1-33.22,21.27A122.44,122.44,0,0,1,855.48,505l-200,16.41-23.18,92q-4,16.21-20.8,17.6ZM660,356.26l32.2,24.37-13.65,53,158.39-13c5.26-.44,8.42-2.81,9.48-7.14l20.09-77.94a2.3,2.3,0,0,1,.18-1.07,1.94,1.94,0,0,0-.39-1.56c-.94-2.74-3-4-6.14-3.73L663.31,345.39a5.32,5.32,0,0,0-5.2,4.39C657.45,352.49,658.06,354.65,660,356.26Z" fill="#fff"/><path d="M958.31,602.48Q962.22,585.74,969,559t15.29-59q8.48-32.2,17.51-67.4t17.47-67.92q8.43-32.73,15.66-60.88t11.55-46.51l-33.92-19.47q-3.9-2.33-2.91-6.38a5.34,5.34,0,0,1,5.2-4.4l462.56-38q-3.23,12.47-10,39.5t-15.6,61.67q-8.82,34.63-18.33,73.56t-18.47,75.15q-8.94,36.24-16.3,66t-11.28,46.49q-4,16.21-20.81,17.6l-108.93,8.95,25.33-91.62-177.34,14.56-19.25,75.22q-4,16.23-20.81,17.6ZM1125.37,424l177.34-14.56,26.79-106q3.69-13-12.09-11.72l-188.92,15.5a5.35,5.35,0,0,0-5.2,4.4,5.61,5.61,0,0,0,2.39,6.43l22.6,17.22Z" fill="#fff"/><path d="M1447.17,562.34q4.77-19.46,12-47.34t15.46-60.07q8.22-32.19,17.34-66.32t17.36-66.06q8.23-31.93,15.5-59.55t12.08-46.55l-33.35-19q-3.9-2.33-2.91-6.39t5.73-4.44l355.21-29.16q20.52-1.69,37.59,3t28.24,14.9a54.26,54.26,0,0,1,15.6,25.47q4.44,15.27-.37,34.21-8,31.92-13.09,53.52a325.86,325.86,0,0,1-11,37.45,133.67,133.67,0,0,1-14.11,28.18q-8.26,12.33-23,25.73a100.07,100.07,0,0,1-26.88,17.84,149.09,149.09,0,0,1-26.54,9.06,188.8,188.8,0,0,1-21.66,3.9,115.43,115.43,0,0,0-12.31,1.81l60.63,80.31a22.3,22.3,0,0,1,4.68,11.8,23.79,23.79,0,0,1-1.94,11.82,24.22,24.22,0,0,1-7.45,9.35,21.72,21.72,0,0,1-11.82,4.41l-99.46,8.17-74.62-115.19-59.46,4.88-27.71,107.7q-4,16.22-20.81,17.6ZM1604,278.75q5.09,3.83,11,7.84a126.72,126.72,0,0,1,10.45,7.89,59.94,59.94,0,0,0,5.65,4.3,68.22,68.22,0,0,1,5.65,4.3l-9.65,37.35L1790.22,327q8.41-.69,10-7.71l1.18-4.86a27.26,27.26,0,0,0,1.44-5.15c.36-2,.79-4.22,1.3-6.73,1.37-4.7,2.66-9.57,3.83-14.62s2.45-9.91,3.83-14.62a52.26,52.26,0,0,1,2-8.11,62.12,62.12,0,0,0,2-7.58q2.6-7.1-5.82-6.41l-202.6,16.63a5.33,5.33,0,0,0-5.2,4.4C1601.5,275,1602.11,277.14,1604,278.75Z" fill="#fff"/><path d="M1906.57,524.63q5.68-21.13,13.37-50.1t16.41-61.48q8.72-32.51,17.55-66.87T1971,280.41q8.26-31.4,15.11-57.93t11.24-43.83l-33.88-18.94q-3.9-2.33-2.64-6.41a5.78,5.78,0,0,1,5.46-4.42l135.77-11.15a19.45,19.45,0,0,1,17.27,7.06q6.74,7.94,3.84,17.7l-18.86,73.6L2236.09,131q7-4.81,12.81-5.29l140-11.49L2199.27,263.26,2289.22,462a21.52,21.52,0,0,1,2.22,10.94,21.18,21.18,0,0,1-3.12,10.32,26.79,26.79,0,0,1-7.58,7.78,22.27,22.27,0,0,1-11.07,3.82l-107.88,8.86q-4.59-10.76-12.17-28.94t-15.48-36.87q-7.89-18.69-14.82-35.34t-10.25-24.85l7-37.13a5.22,5.22,0,0,0-2.6-5.88,5.79,5.79,0,0,0-6.86.3l-34.54,24.55L2037.36,498a22.8,22.8,0,0,1-8,12.31,24.2,24.2,0,0,1-13.33,5.33Z" fill="#fff"/><path d="M2329.66,489.89q18.84-73.58,32.36-125.3t23.54-90.67q10-39,17.89-69.28t15.42-60.6L2385,125.1q-3.9-2.32-2.64-6.4a5.77,5.77,0,0,1,5.46-4.42L2551,100.88q-12.87,49.82-22.93,88.5t-17.67,68.74q-7.6,30-13.44,52.49t-10.2,40.3l-4.39,4.6q-2.42,2.87-7.79,8.32t-14.64,15.24a6,6,0,0,0-.78,6.69,5.33,5.33,0,0,0,5.85,3.49l225.23-18.49q-1.64,6-4.3,15.45t-5.5,20.06q-2.85,10.56-5.42,21.1T2670.41,446q-4,16.22-20.81,17.6Z" fill="#fff"/><path d="M2703.57,391.91l70-277q-1.23-2-11.5-7.8t-20.79-11.27q-3.9-2.33-2.91-6.39a5.34,5.34,0,0,1,5.2-4.4l417.83-34.3L3142.12,126q-4.5,16.26-20.81,17.6l-275.22,22.6a5.33,5.33,0,0,0-5.2,4.39,5.61,5.61,0,0,0,2.38,6.43l30.54,23.46-6.13,22.22,180-14.78L3032,268.53q-4.5,16.28-20.8,17.61L2823.3,301.56c-2.81.23-4.55,1.62-5.22,4.14a5.6,5.6,0,0,0,1.83,6.2l20.94,16.3-8.06,30.86,255.22-21-19.78,75.27q-4,16.22-20.8,17.6l-291,23.89a50,50,0,0,1-42.51-17.7,53.49,53.49,0,0,1-10.45-20.87A48,48,0,0,1,2703.57,391.91Z" fill="#fff"/><path d="M72.85,599.94a22.53,22.53,0,0,1,7.54-11.48,22.87,22.87,0,0,1,12.83-5l256.27-21q8.46-.17,10-7.18L370.34,513q2.1-6.54-6.31-5.84L185.11,521.85a109.87,109.87,0,0,1-37.86-3Q129.91,514.2,118.49,504a53.24,53.24,0,0,1-15.87-25.46q-4.43-15.26.85-34.77l14.77-59a112.47,112.47,0,0,1,14.44-33.77,133.23,133.23,0,0,1,24.66-28.78,125.73,125.73,0,0,1,33.5-21,129.79,129.79,0,0,1,41-10L535,266.39q-5.21,20.57-9.12,37.3T517.26,341q-3.91,16.76-20.76,18.13L205.5,383a5.32,5.32,0,0,0-5.2,4.4,5.6,5.6,0,0,0,2.38,6.43l28.82,22-3.13,13.5q-1.59,6.49,6.31,5.84l179.44-14.73q20.53-1.68,37.6,3t28.5,14.88a53.29,53.29,0,0,1,15.87,25.45q4.43,15.27-.86,34.77l-14.76,59A148.06,148.06,0,0,1,466.27,591a117.54,117.54,0,0,1-23.08,28.65,125.18,125.18,0,0,1-31.92,20.9q-18.13,8.38-40.75,10.23L47.94,677.22Z" fill="url(#a)"/><path d="M504.7,639.72q4.07-15.16,10.46-40.33t14.5-55.76q8.08-30.58,16.65-64.94t17-67.61q8.38-33.27,16-63.56T592.34,294l-32.82-19q-3.9-2.33-2.91-6.38a5.33,5.33,0,0,1,5.2-4.4l350.47-28.78q22.62-1.84,39.79,3.89t27.85,16.52a53.88,53.88,0,0,1,14.3,25.84,61.78,61.78,0,0,1-.87,31.33L968,411a122.51,122.51,0,0,1-14.21,33.48,124.43,124.43,0,0,1-24.37,29,131.61,131.61,0,0,1-33.22,21.27A122.44,122.44,0,0,1,855.48,505l-200,16.41-23.18,92q-4,16.21-20.8,17.6ZM660,356.26l32.2,24.37-13.65,53,158.39-13c5.26-.44,8.42-2.81,9.48-7.14l20.09-77.94a2.3,2.3,0,0,1,.18-1.07,1.94,1.94,0,0,0-.39-1.56c-.94-2.74-3-4-6.14-3.73L663.31,345.39a5.32,5.32,0,0,0-5.2,4.39C657.45,352.49,658.06,354.65,660,356.26Z" fill="url(#a)"/><path d="M958.31,602.48Q962.22,585.74,969,559t15.29-59q8.48-32.2,17.51-67.4t17.47-67.92q8.43-32.73,15.66-60.88t11.55-46.51l-33.92-19.47q-3.9-2.33-2.91-6.38a5.34,5.34,0,0,1,5.2-4.4l462.56-38q-3.23,12.47-10,39.5t-15.6,61.67q-8.82,34.63-18.33,73.56t-18.47,75.15q-8.94,36.24-16.3,66t-11.28,46.49q-4,16.21-20.81,17.6l-108.93,8.95,25.33-91.62-177.34,14.56-19.25,75.22q-4,16.23-20.81,17.6ZM1125.37,424l177.34-14.56,26.79-106q3.69-13-12.09-11.72l-188.92,15.5a5.35,5.35,0,0,0-5.2,4.4,5.61,5.61,0,0,0,2.39,6.43l22.6,17.22Z" fill="url(#a)"/><path d="M1447.17,562.34q4.77-19.46,12-47.34t15.46-60.07q8.22-32.19,17.34-66.32t17.36-66.06q8.23-31.93,15.5-59.55t12.08-46.55l-33.35-19q-3.9-2.33-2.91-6.39t5.73-4.44l355.21-29.16q20.52-1.69,37.59,3t28.24,14.9a54.26,54.26,0,0,1,15.6,25.47q4.44,15.27-.37,34.21-8,31.92-13.09,53.52a325.86,325.86,0,0,1-11,37.45,133.67,133.67,0,0,1-14.11,28.18q-8.26,12.33-23,25.73a100.07,100.07,0,0,1-26.88,17.84,149.09,149.09,0,0,1-26.54,9.06,188.8,188.8,0,0,1-21.66,3.9,115.43,115.43,0,0,0-12.31,1.81l60.63,80.31a22.3,22.3,0,0,1,4.68,11.8,23.79,23.79,0,0,1-1.94,11.82,24.22,24.22,0,0,1-7.45,9.35,21.72,21.72,0,0,1-11.82,4.41l-99.46,8.17-74.62-115.19-59.46,4.88-27.71,107.7q-4,16.22-20.81,17.6ZM1604,278.75q5.09,3.83,11,7.84a126.72,126.72,0,0,1,10.45,7.89,59.94,59.94,0,0,0,5.65,4.3,68.22,68.22,0,0,1,5.65,4.3l-9.65,37.35L1790.22,327q8.41-.69,10-7.71l1.18-4.86a27.26,27.26,0,0,0,1.44-5.15c.36-2,.79-4.22,1.3-6.73,1.37-4.7,2.66-9.57,3.83-14.62s2.45-9.91,3.83-14.62a52.26,52.26,0,0,1,2-8.11,62.12,62.12,0,0,0,2-7.58q2.6-7.1-5.82-6.41l-202.6,16.63a5.33,5.33,0,0,0-5.2,4.4C1601.5,275,1602.11,277.14,1604,278.75Z" fill="url(#a)"/><path d="M1906.57,524.63q5.68-21.13,13.37-50.1t16.41-61.48q8.72-32.51,17.55-66.87T1971,280.41q8.26-31.4,15.11-57.93t11.24-43.83l-33.88-18.94q-3.9-2.33-2.64-6.41a5.78,5.78,0,0,1,5.46-4.42l135.77-11.15a19.45,19.45,0,0,1,17.27,7.06q6.74,7.94,3.84,17.7l-18.86,73.6L2236.09,131q7-4.81,12.81-5.29l140-11.49L2199.27,263.26,2289.22,462a21.52,21.52,0,0,1,2.22,10.94,21.18,21.18,0,0,1-3.12,10.32,26.79,26.79,0,0,1-7.58,7.78,22.27,22.27,0,0,1-11.07,3.82l-107.88,8.86q-4.59-10.76-12.17-28.94t-15.48-36.87q-7.89-18.69-14.82-35.34t-10.25-24.85l7-37.13a5.22,5.22,0,0,0-2.6-5.88,5.79,5.79,0,0,0-6.86.3l-34.54,24.55L2037.36,498a22.8,22.8,0,0,1-8,12.31,24.2,24.2,0,0,1-13.33,5.33Z" fill="url(#a)"/><path d="M2329.66,489.89q18.84-73.58,32.36-125.3t23.54-90.67q10-39,17.89-69.28t15.42-60.6L2385,125.1q-3.9-2.32-2.64-6.4a5.77,5.77,0,0,1,5.46-4.42L2551,100.88q-12.87,49.82-22.93,88.5t-17.67,68.74q-7.6,30-13.44,52.49t-10.2,40.3l-4.39,4.6q-2.42,2.87-7.79,8.32t-14.64,15.24a6,6,0,0,0-.78,6.69,5.33,5.33,0,0,0,5.85,3.49l225.23-18.49q-1.64,6-4.3,15.45t-5.5,20.06q-2.85,10.56-5.42,21.1T2670.41,446q-4,16.22-20.81,17.6Z" fill="url(#a)"/><path d="M2703.57,391.91l70-277q-1.23-2-11.5-7.8t-20.79-11.27q-3.9-2.33-2.91-6.39a5.34,5.34,0,0,1,5.2-4.4l417.83-34.3L3142.12,126q-4.5,16.26-20.81,17.6l-275.22,22.6a5.33,5.33,0,0,0-5.2,4.39,5.61,5.61,0,0,0,2.38,6.43l30.54,23.46-6.13,22.22,180-14.78L3032,268.53q-4.5,16.28-20.8,17.61L2823.3,301.56c-2.81.23-4.55,1.62-5.22,4.14a5.6,5.6,0,0,0,1.83,6.2l20.94,16.3-8.06,30.86,255.22-21-19.78,75.27q-4,16.22-20.8,17.6l-291,23.89a50,50,0,0,1-42.51-17.7,53.49,53.49,0,0,1-10.45-20.87A48,48,0,0,1,2703.57,391.91Z" fill="url(#a)"/><path d="M2760,599.45l-14.65-11.05a32.36,32.36,0,0,0-50,15.21c-.14.38-12.84,37.28-30.42,75.15,13-47.29,20.1-75.59,17.18-94.91-5.47-35.88-51-49.51-64.79-48.94-1,.05-2.24.15-3.24.29-14.06,1.91-22.63,10.49-30.88,25.58-15.37-15-34.8-24.54-57.49-23.59a70.61,70.61,0,0,0-7.73.74c-41.69,6.19-82.36,54.6-107.64,99.61a32.19,32.19,0,0,0-4,6.51c-.09.19-2.11,4.6-5.68,11.88l-1.1,2.33q-1,2.13-2,4.33c-4.45,9.38-9.75,20.36-15.37,31.86,12.76-50.31,15.86-66.76,14.13-78.05-4.73-31.27-41.37-49.82-64.52-48.85a43,43,0,0,0-4.84.46c-11.29,1.68-31.57,4.7-82,77-11.31-27.31-43.11-47.73-67.07-46.73a44.48,44.48,0,0,0-4.7.46c-19.16,3-28,10.89-44,71.22a44.06,44.06,0,0,0-6.42-33.11c15.18-5.35,23.77-20.8,33.35-46,13.1-34.44,11.32-46.22,10.64-50.68-2.77-18.23-32.22-52.94-61.26-51.73-1.15,0-3,.23-4.18.39-16,2.4-27.06,14-41.18,43.85a168.08,168.08,0,0,0-1.12-39.55c-6.07-39.87-37-67.7-73.56-66.17a65.66,65.66,0,0,0-7,.67c-52.16,7.81-93.87,64.47-124.59,135.77-11.71-15.53-31.14-30.58-50.42-29.78-1.15.05-3,.23-4.19.4-16.73,2.49-28,15-43,47.83-17.29,37.71-15.17,51.67-14.38,56.93a35.86,35.86,0,0,0,6.19,15.77c-13.86,6.63-24.17,24-40.61,65.24a973.53,973.53,0,0,0-33.51,100.5l-2.64,5.66c10-42.86,20.07-80.6,20.2-81.08a31.52,31.52,0,0,0,.72-13c-5.46-35.88-51.12-49.5-64.88-48.93-1.17,0-2.54.18-3.69.35-13.9,2.09-22.18,10.31-30.39,25.48a84.25,84.25,0,0,0-30-19.33c23.92-16.15,23.11-36.93,21.7-44.63-2.66-16.62-16.06-28.67-33.35-30-.44,0-.86-.06-1.3-.07-1.48-.06-3-.06-4.67,0a82.06,82.06,0,0,0-10,1.08l-13.7,2.34-9.7,1.72c-7.88,1.38-19.16,3.76-32.54,6.82q-14,3.19-29.68,6.84l2.83-9.32A31.82,31.82,0,0,0,1439.26,588l-15.43-9.66c-35.91-22.44-45-23.91-54-23.54a33.66,33.66,0,0,0-3.61.35c-24.34,3.62-29.46,21.11-48.5,86.17l-.79,2.69c-.14.44-4.43,17.68-4.43,17.68l-53.24,9.78c-14.63,2.58-22.42,3.55-26.4,3.91-2.82.27-5.55.46-8.22.57-2.13.09-4.21.13-6.81.09-4.6,0-10.26-.19-17.64-.64-8-.54-19.38-.8-35.86-.81-.47,0-.93,0-1.4,0a32.83,32.83,0,0,0-4.31.47c-33.55,6-44.87,30.64-41.16,52.75a58.11,58.11,0,0,0,8.44,21.72c-24.42,10.34-46.93,29.87-66.17,54.29,2.65-26,2.31-51-1.24-74.48-16.64-109.95-81.2-168.19-181.79-164a284.44,284.44,0,0,0-30,2.93c-60.54,9.06-154.15,46.22-227.65,90.37C516.83,720.07,467.74,784.83,477,846c5.46,36.08,41.38,59,89.37,57a155,155,0,0,0,16.52-1.6c16.69-2.48,41-8.64,64.47-14.59,10.51-2.66,21.24-5.38,29.76-7.35-10.63,34.54-21.76,71.86-32.74,109.84-9.67,33.22-19.34,67.59-28.78,102.3-63.59,62.94-161,172.36-150.22,243.54,4,26.33,29.82,45.25,60.07,44a60.23,60.23,0,0,0,6.83-.65c153.19-22.91,359.47-196.09,463.42-385.26.32,4.51.71,9,1.36,13.3,9.14,60.29,57.34,97.48,122.78,94.74a166.2,166.2,0,0,0,17.39-1.66c39.32-5.86,76.33-28.13,110.59-66.44,20.44,29.52,57.57,51,92.65,49.56a82.6,82.6,0,0,0,8.69-.82c19-2.86,37-16.84,68.31-73.31a105.07,105.07,0,0,0,78.81,30.43,116.13,116.13,0,0,0,12.35-1.19c22.83-3.42,42.54-20.11,59.75-41.53,18.51,17.6,43.73,29.62,70.63,28.49a78.94,78.94,0,0,0,8.56-.81c15.11-2.24,28-12.29,43.07-35.84,20.51,17.68,46.54,25.5,66,24.69a56.36,56.36,0,0,0,6-.57c17.45-2.59,33.92-14.84,60.62-62.17,25.28,33.53,59.09,38.82,81.47,37.89a125.78,125.78,0,0,0,13.2-1.27c21.84-3.25,43.23-19.7,66.47-51.8,21.35,23.36,52.11,33.66,74.26,32.74a57.84,57.84,0,0,0,6-.57c12.42-1.83,24.27-8.43,39.61-28.95,11.36,8.82,26.49,13.62,43.41,12.92a81.9,81.9,0,0,0,8.75-.84c30-4.5,42.36-26.41,51.38-46.26,3.27-7,12.08-24.89,23.8-47.72,7.74,44,56.4,72.75,96,71.1a76.32,76.32,0,0,0,7.78-.74c16.15-2.39,32.91-10.52,66.24-72.25a106,106,0,0,0,63.9,35.46c-55.28,58.51-96,117.44-86.43,180.86,7.27,48.15,42.59,81.84,84,80.11a71.15,71.15,0,0,0,7.41-.71c57.35-8.55,107.7-99.89,149.73-271.54l5-4.46c27.32-24.12,55.56-49.07,81.15-88,13.28-20.48,26.8-47.93,40.2-81.57,14.92-37.36,24.44-69.19,24.84-70.52A31.83,31.83,0,0,0,2760,599.45ZM572.23,1282.7c3.73-5.79,8.13-12.25,13.34-19.45a57.48,57.48,0,0,0,4.22,8.36C583.49,1275.83,577.65,1279.51,572.23,1282.7Zm151.93-130.78q8.54-28.65,18.68-63.79c24.09-23.53,50.76-47.68,81.46-73.75,5-4.34,10.74-8.74,15.33-12.26.07-.07,3.11-2.45,4.28-3.39A1197.18,1197.18,0,0,1,724.16,1151.92ZM874.93,948.26Q868.45,959.57,861.5,971a33.1,33.1,0,0,0-34.37-35.1,35.51,35.51,0,0,0-3.55.34c-9,1.34-15.88,5.46-31.46,14.8-1.89,1.18-4,2.42-6.25,3.75l-5.81,3.48c34.37-124.94,50.79-194.78,48.82-207.76C826,731.3,817.09,721,802.71,709.75l-.73-.56c-10.56-7.8-22.1-15.37-36.83-14.75-1.16,0-3,.22-4.1.39-21.9,3.28-29.22,22.73-40.3,52.15-4.9,13-10.5,29-16.53,47.07a119.68,119.68,0,0,0-31.32-2.63,154.41,154.41,0,0,0-16.45,1.6c-10.68,1.6-27.82,6.84-54.79,15.29l-4.16,1.3c14.47-19.75,42.09-46.28,88.15-76.48C748.61,691.84,827,657,872,650.25A212.2,212.2,0,0,1,894.49,648c41.09-1.72,50.11,11.71,54.76,42.45C959.3,756.87,933.61,846,874.93,948.26ZM1281.8,771.75c-9.43,31.36-21.06,70-26.09,88-5.53,12.17-11.28,24-17.15,35.24-48.48,93.38-81.92,105.09-91,106.45a38.33,38.33,0,0,1-4,.38,35,35,0,0,1-13-1.91c22.06-17.86,41.21-35.76,57.09-53.42,43.15-47.51,61.84-92.63,55.55-134.14a93.24,93.24,0,0,0-13.13-36.38c1.83-.26,3.65-.55,5.48-.85,7.11-1.27,47.73-8.32,47.73-8.32ZM1387.91,867c-1.13,2.09-2.24,4.14-3,5.69-8.65,16.08-16.33,30.08-23.13,42.27.58-2,1.19-4.11,1.81-6.23,9.83-33.44,43-136.77,53-165,.16-.45.3-.9.45-1.36l2.42-8q5.77-1.47,11.56-2.91,18.15-4.45,35.34-8.61C1430.64,759.07,1400.16,815.88,1387.91,867Zm134.17-15c-2.31,4.22-4.64,8.45-6.93,12.56a365.3,365.3,0,0,1,13.78-41.06,41.37,41.37,0,0,0,5.24,6.11C1530.94,835.64,1527,843,1522.08,852Zm458.68-93.68c-4.43,8.63-9.28,17.87-14.44,27.45-25.55,47.7-43.32,75.2-54.9,90.93-.73-5.47-1.51-20.65,3.84-54.5,2.63-17.22,6.47-36.8,11.19-57C1983,699,2023.13,645,2044.14,594.87a35.37,35.37,0,0,0,6,14.65C2036.24,617.11,2013.9,644.87,1980.76,758.28Zm134.83-32.65c-2.75,5.58-5.71,11.54-8.79,17.76,2.6-8.07,5.14-15.76,7.5-22.89,4-12.27,7.24-22,9.66-30C2121.38,701,2118.62,712.61,2115.59,725.63ZM2512,703.8q-3.67,6.68-7,12.6a362.73,362.73,0,0,1,13.77-41,41.29,41.29,0,0,0,5.24,6.11C2520.79,687.68,2516.8,695.08,2512,703.8Z"/><path d="M2725.88,613.87s-14.05,41-33.66,82.52c-8.76,18.52-18.72,37.18-29,52.24-19.74,29.4-40.23,48.78-62.19,69.22,10.47-45.16,17.62-83.59,21.28-105.14.51-2.08,1.07-4.07,1.59-6.1,12.9-48.5,29.06-99.79,26.31-118-2.09-13.77-28.4-22.27-31.79-21.76s-11.3,17.3-20.87,39.74L2586.48,630c-7.78-28.43-30.67-65.42-63.74-60.47-26.11,3.88-61.38,41.11-86.71,88l-.33-.31s-2.16,4.71-6,12.6c-.84,1.86-1.78,3.68-2.58,5.64-7.45,15.72-19.12,39.75-31.88,65.3-26.68,53.24-58.07,112.62-66.36,113.83s-11.77-3.62-12.8-10.53c-1.71-11.17,7.64-51.12,18.69-94.28,14.33-56.34,31.33-118.27,29.75-128.68-1.85-12.17-22.54-23.06-32.71-21.54-30.14,4.51-106.53,135.41-126,169.51-2.91,5.15-4.54,8.1-4.54,8.1l-4.63-1.63s.47-1.9,1.25-5.27c4.84-19.91,21.52-90.52,18.92-107.55-2.62-17.5-27.65-34-38.6-32.41-5.68.88-19.06,50-32,106-6.5,13.17-14.24,28.76-22.41,45.06-29.29,57.78-64.76,124.51-73.32,125.83-2.57.38-2.69-.44-4.09-9.52-4.39-29,2.59-68.24,12.64-106.65,16.19-61.49,40.4-120.71,38.75-131.52-1.84-12.18-22.53-23.06-32.7-21.54-8.11,1.21-35.32,67-54.17,132-4.9,9.58-10.32,20-16.1,30.67-30.57,57.06-70.21,123-91.1,126.12-11.77,1.77-19.57-15-24-44.67-2.15-14.09-.66-36.87,3.75-64.77,3.07-20.15,7.65-43,13.46-67.09C1986.65,645.79,2038.19,571,2027.16,498c-3.94-25.94-23.59-41.67-43.89-38.67C1897.8,472.1,1833.91,688,1824.4,821.06l-2.76,5.56c-29.2,57.87-64.67,124.51-73.28,125.83-2.52.38-2.65-.44-4-9.53-4.39-29,2.59-68.23,12.64-106.6,16.19-61.54,40.4-120.76,38.75-131.57-1.85-12.18-22.54-23.06-32.7-21.54-8.75,1.28-40,78.39-58.67,148-2.11,4.56-4.31,9.23-6.47,13.89-26,55.32-57,117.88-64.58,119-6.73,1-10.6-7.7-12.89-23-2.16-14.17,3.66-49.07,11.42-86.16,12-56.6,28.52-118.29,28.52-118.29-2.1-13.76-28.5-22.26-31.89-21.75s-11.21,17.29-20.78,39.73l-11.1,23.42c-7.78-28.44-30.76-65.43-63.74-60.48-38.8,5.83-97.92,85.48-114.46,160.65-1.66,3.14-3.38,6.18-5,9.45-32.64,60.62-73.21,132-82.83,133.45-7.65,1.15-12.89-5.13-14-12.72-4.21-27.85,4.16-68.07,16.15-108.67,10.29-35,43.74-138.9,53.55-166.66l7.67-25.23q14.58-3.78,29.46-7.5,25.52-6.28,49.32-12c15.75-3.73,30-7.75,42.28-11.92S1537,668,1544,663.79s10-9,9.15-13.91c-.32-2-1.69-3-4-3.13a41.78,41.78,0,0,0-8,.66l-13.5,2.3-9.74,1.73c-6.55,1.15-16.87,3.27-31,6.51s-29.45,6.76-46,10.66c-12.78,3-25.33,5.86-37.76,8.65l18.9-62.17-15.41-9.66c-21.06-13.15-33.11-19-35.68-18.62-4.21.63-20.26,56.49-23.12,66.21l-9.06,36.4L1264.85,703c-12.95,2.28-22.66,3.69-29,4.28a170.22,170.22,0,0,1-18,.8c-5.76,0-12.31-.27-19.89-.73s-18.79-.72-33.73-.74c-11.48,2-16.47,7.28-15.06,15.72,1.75,9.9,7.32,16.34,16.58,19.38a105.87,105.87,0,0,0,31,4.56,192.16,192.16,0,0,0,33.16-2.67c10.76-1.91,18.35-3.19,22.79-4l75-13.06.89-.28-4.24,15.32c-1.66,6.47-30.89,102.21-38.26,128.94-5.31,11.79-11.67,25.13-18.92,39-28.28,54.49-70,116.73-114.87,123.45-29.68,4.44-59.62-10.58-66.57-39.1,21.1-15.51,52-40,78-68.87,29.88-32.89,53.16-71.4,47.62-108-4.14-27.35-22-48-55.82-43-56.43,8.44-111,94-124.68,170.82-3.73,20-4.53,39.46-1.91,56.77,8.08,53.3,54.51,73.58,103.52,66.23,57.67-8.59,103.28-63.26,135-117.26-2.92,17.13-4.24,31.87-2.79,41.41,4.6,30.48,45.06,63.31,79.69,58.16,16-2.4,45.32-54.89,71.92-109.72,8.44,40.84,42.07,72.45,87.56,65.65,23.68-3.55,48.52-40,66.4-69.94l.37,2.32c4,26.62,38.32,58.84,72.22,53.76,11.13-1.65,29.12-33.13,47.33-71.75a46.36,46.36,0,0,0,.52,4.69c6.89,45.71,51.95,57.63,67.21,55.35s43.4-54.4,68.54-107.94c8.94,48.46,32.23,90.56,86.73,82.38,24.33-3.62,53.63-47,79-94.93a101.6,101.6,0,0,0,.51,20c6.89,45.71,52,57.63,67.21,55.35,14.71-2.17,41.23-50.29,65.54-101.55-6.43,33.55-10.57,59.24-9.8,64.37,2.54,16.72,19.07,22.85,36,20.31,11.86-1.78,17.82-8.06,26.94-28.1,5.93-12.64,35.34-72.08,66.31-127.14,16.35-29,33.21-56.94,47.43-76-6.75,21.5-13.43,46.92-18.66,71.74-8.16,37.47-13.12,73.2-10.45,90.7,4.47,29.71,42.88,48.86,67.43,45.19,16.36-2.43,47.22-61.37,73.5-118.53.19,3.65.58,7.29,1.09,10.84,6.57,43.39,41.15,77.93,88.51,70.83,17-2.54,34.75-22.31,50.39-44.95-4.23,17.78-7.4,36.93-12.42,55.61-66.35,64.41-130.53,132.39-120.73,197.13,5.3,35,30.19,56.21,54.75,52.53,52.44-7.81,100-150.45,125.5-257,31.23-28,61.34-51.94,88.08-92.57,14-21.57,27-50,37.34-76,14.56-36.46,23.89-67.8,23.89-67.8ZM1996.62,490.78c3.39-.51,7.93,6.66,8.5,10.44,9.23,60.88-36.47,123.14-95.27,197.34C1943.59,572.83,1969.6,494.84,1996.62,490.78Zm-908,445.5c12.84-56.51,50.43-117.7,72.28-120.95,4.3-.68,5.9,4.51,6.4,7.6,5.81,38.62-32.55,81.38-69.11,111.94-3.83,3.18-7.58,6.17-11.24,9.07C1087.35,941.4,1087.89,938.82,1088.57,936.28Zm461.85-69.11c-8.82,16.15-18.17,32.68-24.62,43.78-22.78,38.49-40.33,65.2-45.41,66-6.78,1-10.15-10.14-11.42-18.5-2.11-14,1.58-45.88,9.58-80.46,13.19-57.29,38.32-122.13,68.92-126.7,6.78-1,11.61,2.12,12.88,10.53,1.4,9.08-7.47,30.72-6,40.58.57,3.81,3.51,5.7,8.13,8.07l14,6.5C1576.68,818.34,1564,842.23,1550.42,867.17Zm901.86,219.76c-9.35,1.4-17-15.34-18.48-25.29-7.88-51.79,34.86-101,86.86-151.59C2497.26,1000.83,2470.92,1084.14,2452.28,1086.93Zm88-367.82c-8.87,16.1-18.13,32.67-24.67,43.74-22.64,38.48-40.28,65.19-45.37,65.95-6.78,1-10.14-10.09-11.42-18.49-2.1-14,1.59-45.88,9.59-80.47,13.19-57.24,38.32-122.08,68.91-126.7,6.78-1,11.62,2.17,12.89,10.53,1.39,9.09-7.48,30.72-6,40.63.57,3.77,3.51,5.7,8.13,8.07l14,6.46C2566.59,670.23,2554,694.17,2540.33,719.11Z" fill="#29abe2"/><path d="M851.4,600C749,615.29,492.63,733.84,508.88,841.21c3.46,22.85,32.88,34,69.23,28.53,27.95-4.19,86.69-21.54,107.06-24.59,15.25-2.28,26.45-2.33,34.59,5.74C705.67,895.4,690.12,947,675.35,998.1c-11.06,38-21.6,75.76-30.88,110.08-82.93,81-154.59,173.43-147.32,221.42l.1.71c1.74,11.46,16.63,18.53,30.24,16.49,152.44-22.8,360.2-205.9,453.29-394.39,37.11-75.11,56-151.1,45.8-218.24C1011.25,632.9,953.79,584.65,851.4,600Zm-212.69,675.7c-43.37,33.74-82.53,55.2-111.3,59.51-5,.75-6.88.21-7.56-4.28-5-32.82,48.36-103.86,112.88-175-11.83,47.69-19.47,83-18,93C615.8,1255.74,628.37,1270.27,638.71,1275.67ZM903,964.05C836.31,1080.38,739,1192.91,654.11,1263.27c12.64-30.67,35.69-107.38,60.06-192,32.41-32.1,64.48-60.26,89-81.07,6-5.13,12.4-10.06,17.33-13.87,5.26-4.12,8.92-7.1,8.8-7.9a.8.8,0,0,0-.94-.67c-2.56.38-8.64,4-19.09,10.26-3.25,2-7,4.2-11.22,6.73-22.25,13.43-47.21,31.24-73.45,52.21,4.56-16.11,9.12-32.31,13.61-48.31,32.46-116.28,60-225.42,58.82-233.45-1.27-8.38-3.49-11.93-14.3-20.41-8.84-6.53-13.49-8.9-16.87-8.39-4.2.62-21.5,46.79-42,111.38-11.75-9.16-30.37-18-62.61-13.19-17.72,2.65-80.89,25.28-97.88,27.82-7.58,1.13-9.68-1.62-10.6-7.71-12.45-82.22,214.62-211.19,314.45-226.12,75.26-11.26,105.63,12.25,113.92,67C993.32,766.21,958.91,866.54,903,964.05Z" fill="#29abe2"/><path d="M1809.35,652.1c5.92-.89,25.12-51.26,23.51-61.92-.7-4.57-18.65-26-28.81-24.5-6.76,1-32.38,54.68-30.31,68.38C1775.12,643.2,1809.35,652.1,1809.35,652.1Z" fill="#29abe2"/><path d="M2111.4,606.91c5.92-.89,25.12-51.25,23.51-61.91-.69-4.58-18.65-26-28.8-24.5-6.77,1-32.39,54.67-30.32,68.37C2077.18,598,2111.4,606.91,2111.4,606.91Z" fill="#29abe2"/><path d="M903,964.05C836.31,1080.38,739,1192.91,654.11,1263.27c12.64-30.67,35.69-107.38,60.06-192,32.41-32.1,64.48-60.26,89-81.07,6-5.13,12.4-10.06,17.33-13.87l-11.23,1.69c-3.25,2-7,4.2-11.22,6.73-22.25,13.43-47.21,31.24-73.45,52.21,4.56-16.11,9.12-32.31,13.61-48.31l-62.84,9.4c-11.06,38-21.6,75.76-30.88,110.08-82.93,81-154.59,173.43-147.32,221.42l.1.71c1.74,11.46,16.63,18.53,30.24,16.49,152.44-22.8,360.2-205.9,453.29-394.39ZM638.71,1275.67c-43.37,33.74-82.53,55.2-111.3,59.51-5,.75-6.88.21-7.56-4.28-5-32.82,48.36-103.86,112.88-175-11.83,47.69-19.47,83-18,93C615.8,1255.74,628.37,1270.27,638.71,1275.67Z" fill="url(#h)"/><path d="M2244.87,763.3c-31,55.07-60.38,114.5-66.32,127.12-9.11,20-15.06,26.34-26.94,28.12-16.89,2.52-33.42-3.57-36-20.34-.78-5.11,3.37-30.81,9.78-64.34-24.28,51.27-50.81,99.35-65.52,101.55-15.25,2.28-60.3-9.65-67.22-55.35a100.09,100.09,0,0,1-.5-19.95c-25.44,47.92-54.74,91.28-79,94.91-54.53,8.16-77.8-33.92-86.72-82.39-25.15,53.57-53.22,105.67-68.57,108s-60.3-9.66-67.22-55.36c-.23-1.5-.36-3-.53-4.7-18.15,38.62-36.18,70.1-47.32,71.77-33.89,5.07-68.19-27.15-72.22-53.8l-.35-2.29c-17.89,29.92-42.72,66.39-66.38,69.93-45.49,6.8-79.13-24.79-87.56-65.67-26.63,54.87-56,107.34-71.94,109.73-34.61,5.18-75.08-27.65-79.7-58.17-1.44-9.53-.12-24.25,2.8-41.38-31.71,54-77.33,108.64-135,117.27-49,7.33-95.46-13-103.52-66.26-2.62-17.29-1.82-36.71,1.87-56.75l57.72-8.64c-.64,2.53-1.18,5.14-1.64,7.65,3.67-2.9,7.42-5.9,11.23-9.08l65.58-9.81c-26,28.88-56.84,53.34-77.94,68.86,6.94,28.55,36.86,43.56,66.55,39.12,44.84-6.71,86.6-69,114.88-123.46l65.4-9.79c-12,40.59-20.37,80.82-16.15,108.7,1.15,7.58,6.39,13.84,14.06,12.69,9.59-1.44,50.16-72.82,82.83-133.46l65.21-9.76c-8,34.58-11.71,66.44-9.58,80.47,1.26,8.38,4.63,19.51,11.39,18.5,5.11-.77,22.65-27.48,45.4-66,6.45-11.07,15.81-27.62,24.67-43.74L1631.82,855c-7.74,37.07-13.58,72-11.43,86.16,2.31,15.26,6.15,24,12.91,23,7.58-1.14,38.56-63.69,64.56-119l59.09-8.84c-10.06,38.41-17,77.61-12.63,106.64,1.38,9.08,1.5,9.88,4.06,9.49,8.58-1.28,44.08-67.94,73.24-125.8l61.74-9.24c-4.37,27.9-5.87,50.68-3.73,64.8,4.48,29.64,12.26,46.43,24,44.67,20.91-3.13,60.53-69.05,91.13-126.14l64.2-9.6c-10.06,38.4-17,77.61-12.63,106.63,1.38,9.09,1.5,9.88,4.06,9.5,8.58-1.28,44.06-68,73.33-125.82l74.08-11.08c-.8,3.37-1.27,5.24-1.27,5.24l4.64,1.65s1.61-2.94,4.57-8.08Z" fill="url(#i)"/><path d="M2692.24,696.38c-8.77,18.55-18.75,37.18-29,52.24-19.74,29.39-40.25,48.79-62.19,69.21,10.45-45.14,17.62-83.56,21.26-105.13.53-2.06,1.07-4,1.6-6.1l-83.57,12.5c-8.86,16.12-18.13,32.67-24.67,43.75-22.66,38.49-40.29,65.21-45.4,66-6.76,1-10.13-10.13-11.4-18.51-2.12-14,1.56-45.88,9.59-80.46l-73.26,10.95c-26.68,53.26-58.05,112.62-66.36,113.86s-11.76-3.65-12.8-10.53c-1.7-11.21,7.67-51.13,18.7-94.28l-61.1,9.14c-8.15,37.49-13.11,73.23-10.47,90.7,4.5,29.73,42.89,48.89,67.46,45.21,16.35-2.44,47.22-61.37,73.51-118.53a106.37,106.37,0,0,0,1.08,10.84c6.57,43.41,41.12,77.93,88.52,70.84,17-2.54,34.73-22.33,50.36-45-4.22,17.77-7.39,36.92-12.41,55.63-66.37,64.42-130.53,132.38-120.73,197.14,5.3,35,30.18,56.2,54.75,52.53,52.42-7.85,100.05-150.48,125.49-257,31.25-28,61.35-51.94,88.08-92.57,14-21.58,27-50,37.34-76Zm-240,390.55c-9.32,1.39-17-15.33-18.49-25.29-7.84-51.79,34.88-100.94,86.9-151.58C2497.24,1000.81,2470.9,1084.14,2452.27,1086.93Z" fill="url(#j)"/></svg>